<?xml version="1.0" encoding="UTF-8" standalone="no"?>
<!-- Created with Inkscape (http://www.inkscape.org/) -->

<svg
   width="57.633041mm"
   height="26.458347mm"
   viewBox="0 0 57.633042 26.458348"
   version="1.1"
   id="svg1"
   inkscape:version="1.4.2 (ebf0e94, 2025-05-08)"
   sodipodi:docname="cmdapk.svg"
   xmlns:inkscape="http://www.inkscape.org/namespaces/inkscape"
   xmlns:sodipodi="http://sodipodi.sourceforge.net/DTD/sodipodi-0.dtd"
   xmlns="http://www.w3.org/2000/svg"
   xmlns:svg="http://www.w3.org/2000/svg">
  <sodipodi:namedview
     id="namedview1"
     pagecolor="#ffffff"
     bordercolor="#666666"
     borderopacity="1.0"
     inkscape:showpageshadow="2"
     inkscape:pageopacity="0.0"
     inkscape:pagecheckerboard="0"
     inkscape:deskcolor="#d1d1d1"
     inkscape:document-units="mm"
     inkscape:zoom="0.72189769"
     inkscape:cx="334.53494"
     inkscape:cy="-137.83117"
     inkscape:window-width="1024"
     inkscape:window-height="711"
     inkscape:window-x="0"
     inkscape:window-y="0"
     inkscape:window-maximized="1"
     inkscape:current-layer="layer1" />
  <defs
     id="defs1">
    <inkscape:path-effect
       effect="bspline"
       id="path-effect4"
       is_visible="true"
       lpeversion="1.3"
       weight="33.333333"
       steps="2"
       helper_size="0"
       apply_no_weight="true"
       apply_with_weight="true"
       only_selected="false"
       uniform="false" />
    <inkscape:path-effect
       effect="bspline"
       id="path-effect2"
       is_visible="true"
       lpeversion="1.3"
       weight="33.333333"
       steps="2"
       helper_size="0"
       apply_no_weight="true"
       apply_with_weight="true"
       only_selected="false"
       uniform="false" />
    <inkscape:path-effect
       effect="bspline"
       id="path-effect1"
       is_visible="true"
       lpeversion="1.3"
       weight="33.333333"
       steps="2"
       helper_size="0"
       apply_no_weight="true"
       apply_with_weight="true"
       only_selected="false"
       uniform="false" />
    <inkscape:path-effect
       effect="bspline"
       id="path-effect5"
       is_visible="true"
       lpeversion="1.3"
       weight="33.333333"
       steps="2"
       helper_size="0"
       apply_no_weight="true"
       apply_with_weight="true"
       only_selected="false"
       uniform="false" />
  </defs>
  <g
     inkscape:label="Layer 1"
     inkscape:groupmode="layer"
     id="layer1"
     transform="translate(-34.087146,-95.741446)">
    <path
       style="font-size:18.7149px;line-height:1.25;font-family:'Ubuntu Condensed';-inkscape-font-specification:'Ubuntu Condensed, ';stroke-width:0.25993"
       d="m 47.559989,99.745201 q -1.010605,0 -1.684341,-0.393013 -0.673737,-0.393013 -1.104179,-1.066749 -0.411728,-0.692451 -0.598877,-1.628196 -0.168434,-0.935745 -0.168434,-2.039924 0,-2.432937 0.8796,-3.799125 0.898315,-1.384902 2.694945,-1.384902 0.542733,0 0.973175,0.131004 0.430443,0.131004 0.804741,0.336868 l -0.411728,1.328758 q -0.580162,-0.374298 -1.291328,-0.374298 -1.010604,0 -1.497192,0.91703 -0.467872,0.91703 -0.467872,2.844665 0,0.80474 0.09357,1.497192 0.09358,0.673736 0.318153,1.160323 0.243294,0.486588 0.617592,0.767311 0.393013,0.280724 0.99189,0.280724 0.411728,0 0.729881,-0.09358 0.336868,-0.112289 0.636306,-0.280723 l 0.355583,1.253898 q -0.299438,0.205864 -0.80474,0.374298 -0.486588,0.168434 -1.066749,0.168434 z m 3.611951,-9.787892 q 0.655022,-0.205864 1.422333,-0.336868 0.767311,-0.14972 1.403617,-0.14972 0.655022,0 1.179039,0.168435 0.542732,0.168434 0.95446,0.561447 0.486587,-0.318154 1.048034,-0.524018 0.561447,-0.205864 1.235183,-0.205864 0.673737,0 1.216469,0.205864 0.561447,0.187149 0.95446,0.655022 0.393012,0.467872 0.617591,1.272613 0.224579,0.786026 0.224579,1.965064 v 5.932623 h -1.609481 v -5.801618 q 0,-1.459762 -0.336868,-2.133499 -0.336869,-0.673736 -1.272614,-0.673736 -0.355583,0 -0.729881,0.131004 -0.355583,0.131004 -0.673736,0.355583 0.149719,0.430443 0.224579,0.973175 0.07486,0.542732 0.07486,1.216468 v 5.932623 h -1.609481 v -5.801618 q 0,-1.459762 -0.336868,-2.133499 -0.336868,-0.673736 -1.272613,-0.673736 -0.486588,0 -1.104179,0.187149 v 8.421704 H 51.17194 Z m 17.292566,1.197753 q -0.542732,-0.299438 -1.160323,-0.299438 -0.467873,0 -0.823456,0.187149 -0.355583,0.187149 -0.617592,0.617592 -0.243293,0.430442 -0.374298,1.141608 -0.131004,0.711167 -0.131004,1.759201 0,2.021209 0.524017,2.900809 0.542732,0.860886 1.628196,0.860886 0.205864,0 0.449158,-0.01872 0.243294,-0.03743 0.505302,-0.11229 z m 0,-5.895193 1.609482,-0.280723 v 14.260753 q -0.524018,0.224579 -1.197754,0.355583 -0.673736,0.149719 -1.366188,0.149719 -2.021209,0 -2.938239,-1.291328 -0.898315,-1.291328 -0.898315,-3.892699 0,-1.179039 0.187149,-2.114784 0.205864,-0.954459 0.617592,-1.609481 0.430442,-0.673736 1.085464,-1.029319 0.655021,-0.374298 1.553337,-0.374298 0.430442,0 0.729881,0.09357 0.318153,0.07486 0.617591,0.224579 z"
       id="text1"
       transform="scale(0.86986989,1.1495972)"
       aria-label="cmd" />
    <path
       d="m 85.819621,90.141678 c -1.579209,1.08165 -1.94697,1.29798 -2.1633,1.29798 -0.151431,0 -0.259596,-0.173064 -0.259596,-0.43266 0,-0.584091 0.497559,-2.855556 1.29798,-5.819277 0.237963,-0.346128 0.281229,-0.389394 0.627357,-0.778788 -1.038384,-0.237963 -1.773906,-0.324495 -2.725758,-0.324495 -0.886953,0 -1.319613,0.08653 -1.860438,0.43266 -0.778788,0.454293 -1.687373,1.124916 -1.968602,1.427778 -0.822054,0.908586 -1.709007,3.829041 -1.709007,5.581314 0,1.038384 0.346128,1.73064 0.886953,1.73064 0.475926,0 1.189815,-0.43266 3.893939,-2.37963 -0.237963,1.103283 -0.324495,1.644108 -0.324495,1.925337 0,0.302862 0.129798,0.454293 0.346128,0.454293 0.281229,0 0.454293,-0.08653 1.990236,-1.103283 0.735522,-0.497559 1.146549,-0.778788 1.94697,-1.362879 z m -3.807408,-0.151431 c -0.757155,0.562458 -1.146549,0.843687 -1.168182,0.86532 -0.713889,0.454293 -1.276347,0.735522 -1.557576,0.735522 -0.36776,0 -0.562457,-0.389394 -0.562457,-1.08165 0,-1.103283 0.324495,-2.531061 0.886952,-3.785775 0.519192,-1.189815 0.995118,-1.644108 1.73064,-1.644108 0.389394,0 1.124916,0.108165 1.838805,0.281229 -0.43266,1.557576 -0.584091,2.141667 -0.605724,2.249832 -0.129798,0.540825 -0.237963,1.08165 -0.367761,1.644108 -0.02163,0.108165 -0.08653,0.367761 -0.194697,0.735522 z m 2.725719,7.593183 -0.64899,0.692256 c 0.389394,0.02163 0.64899,0.02163 0.735522,0.02163 l 1.557576,0.02163 1.384512,0.02163 c 0.173064,0 0.475926,0 1.016751,-0.02163 l 0.670623,-0.540825 -2.422896,-0.129798 c 0.281229,-1.319613 0.411027,-1.94697 0.497559,-2.293098 0.108165,-0.454293 0.194697,-0.908586 0.302862,-1.384512 L 88.069414,93.0405 c 0.43266,0.08653 0.670623,0.108165 1.038384,0.108165 1.189815,0 1.427778,-0.108165 3.115152,-1.51431 0.735522,-0.584091 0.995118,-0.886953 1.319613,-1.51431 0.692256,-1.406145 1.146549,-3.093519 1.146549,-4.3266 0,-1.038384 -0.454293,-1.709007 -1.168182,-1.709007 -0.519192,0 -1.254714,0.324495 -2.141667,0.973485 -0.951852,0.692256 -1.535943,1.124916 -1.773906,1.276347 0.302862,-1.276347 0.454293,-1.925337 0.454293,-1.968603 0,-0.129798 -0.151431,-0.281229 -0.302862,-0.281229 -0.21633,0 -1.968603,0.930219 -3.569445,1.882071 l -0.129798,0.562458 c 0.151431,-0.0649 0.454293,-0.194697 0.886953,-0.367761 0.411027,-0.194697 0.497559,-0.21633 0.670623,-0.21633 0.259596,0 0.411027,0.21633 0.411027,0.605724 0,0.778788 -1.276347,6.338469 -2.509428,10.989564 z m 3.850674,-6.727863 0.324495,-1.471044 0.324495,-1.406145 c 0.02163,-0.108165 0.08653,-0.389394 0.173064,-0.778788 1.752273,-1.29798 2.444529,-1.665741 3.006987,-1.665741 0.43266,0 0.713889,0.454293 0.713889,1.189815 0,0.973485 -0.302862,2.206566 -0.843687,3.374748 -0.584091,1.29798 -1.319613,1.925337 -2.206566,1.925337 -0.540825,0 -1.124916,-0.173064 -1.644108,-0.475926 z m 7.07396,2.357997 c 0.237963,-0.08653 0.454293,-0.173064 0.519192,-0.194697 0.129798,-0.04327 0.346128,-0.108165 0.584091,-0.194697 0.0649,-0.02163 0.259596,-0.08653 0.475926,-0.151431 l 0.843687,-3.850674 0.497559,-0.302862 c 0.43266,0.995118 0.519192,1.189815 1.211448,2.81229 0.930221,2.206566 1.492681,3.093519 2.379631,3.785775 0.93022,0.713889 2.27146,1.168182 3.41801,1.168182 0.99512,0 1.68738,-0.21633 2.358,-0.757155 l -0.43266,-1.557576 c -0.69226,1.168182 -1.31961,1.622475 -2.2282,1.622475 -0.71389,0 -1.29798,-0.346128 -1.9686,-1.146549 -0.58409,-0.692256 -0.58409,-0.692256 -2.89882,-5.602947 l -0.627361,-1.341246 1.449411,-1.319613 c 0.86532,-0.757155 1.10328,-0.908586 1.51431,-0.908586 0.36776,0 0.62736,0.173064 0.97348,0.627357 l 1.10329,-1.644108 c -0.43266,-0.324495 -0.73552,-0.43266 -1.21145,-0.43266 -0.58409,0 -0.95185,0.194697 -1.60084,0.800421 -0.67063,0.64899 -0.69226,0.670623 -0.93022,0.886953 l -2.790658,2.487795 0.822054,-3.309849 c 0.692256,-2.855556 0.930214,-3.547811 1.297984,-4.153535 0.38939,-0.627357 0.95185,-0.930219 1.68737,-0.930219 0.1947,0 0.36776,0.02163 0.75715,0.08653 l 0.86532,-1.254714 c -0.28122,-0.04327 -0.41102,-0.0649 -0.62735,-0.0649 -0.77879,0 -1.27635,0.173064 -1.96861,0.670623 -1.384507,0.973485 -2.357992,1.925337 -2.639221,2.552694 -0.21633,0.475925 -0.627357,1.903703 -0.908586,3.158417 z"
       id="text2"
       style="font-style:italic;font-weight:500;font-size:21.633px;line-height:1.25;font-family:Z003;-inkscape-font-specification:'Z003 Medium Italic';fill:#ff0000;stroke-width:0.338015"
       transform="scale(0.81083246,1.2333004)"
       aria-label="apk" />
    <path
       d="m 70.807612,96.657721 a 7.4239002,7.2977406 0 0 0 -7.254803,5.749269 h 14.509606 a 7.4239002,7.2977406 0 0 0 -7.254803,-5.749269 z m -4.002331,3.413029 a 0.47105765,0.62253745 0 0 1 0.4712,0.62272 0.47105765,0.62253745 0 0 1 -0.4712,0.62273 0.47105765,0.62253745 0 0 1 -0.470758,-0.62273 0.47105765,0.62253745 0 0 1 0.470758,-0.62272 z m 8.004219,0 a 0.47105765,0.62253745 0 0 1 0.471201,0.62272 0.47105765,0.62253745 0 0 1 -0.471201,0.62273 0.47105765,0.62253745 0 0 1 -0.471199,-0.62273 0.47105765,0.62253745 0 0 1 0.471199,-0.62272 z"
       style="fill:#008000;stroke-width:0.709982;stroke-linecap:round;stroke-linejoin:round"
       id="path10" />
    <g
       id="g4"
       transform="matrix(0.53047699,0,0,0.70106449,48.507382,6.9219224)">
      <path
         style="fill:none;stroke:#008000;stroke-width:1.03188;stroke-linecap:round;stroke-linejoin:round;stroke-dasharray:none;stroke-opacity:1"
         d="m 33.693925,127.89526 c -0.219776,-1.11783 -0.439549,-2.23564 -1.131131,-3.1209 -0.691583,-0.88527 -1.854926,-1.53792 -3.018292,-2.19059"
         id="path2"
         transform="rotate(-15,56.638943,136.52997)"
         sodipodi:nodetypes="ccc" />
      <path
         style="fill:none;stroke:#008000;stroke-width:1.03188;stroke-linecap:round;stroke-linejoin:round;stroke-dasharray:none;stroke-opacity:1"
         d="m 33.693925,127.89526 c -0.219776,-1.11783 -0.439549,-2.23564 -1.131131,-3.1209 -0.691583,-0.88527 -1.854926,-1.53792 -3.018292,-2.19059"
         id="path3"
         transform="matrix(-0.96592583,-0.25881905,-0.25881905,0.96592583,117.48215,19.311383)"
         sodipodi:nodetypes="ccc" />
    </g>
  </g>
</svg>
